<svg width="196" height="74" viewBox="0 0 196 74" fill="none" xmlns="http://www.w3.org/2000/svg">
<path d="M183.21 35.0727C183.21 29.4083 178.942 25.451 173.588 25.451C168.157 25.451 163.811 29.4083 163.811 35.0727C163.811 40.6595 168.312 44.772 173.588 44.772C178.865 44.772 183.21 40.6595 183.21 35.0727ZM151.552 35.0727C151.552 22.8904 161.096 14.2774 173.588 14.2774C186.003 14.2774 195.548 22.8904 195.548 35.0727C195.548 47.0998 185.46 55.9456 173.588 55.9456C161.561 55.9456 151.552 47.0998 151.552 35.0727Z" fill="#005BC4"/>
<path d="M124.758 25.5286C119.249 25.5286 115.137 29.5635 115.137 35.0727C115.137 40.6595 119.249 44.772 124.758 44.772C130.113 44.772 134.225 40.6595 134.225 35.0727C134.225 29.5635 130.113 25.5286 124.758 25.5286ZM102.722 55.3248V0H115.137V21.1833C117.62 16.9932 121.732 14.355 127.785 14.355C137.562 14.355 146.563 22.8904 146.563 35.0727C146.563 47.4878 137.562 55.9456 127.785 55.9456C121.732 55.9456 117.62 53.2298 115.137 48.9621V55.3248H102.722Z" fill="#005BC4"/>
<path d="M81.5208 35.0727C81.5208 29.4083 77.2531 25.451 71.8991 25.451C66.4675 25.451 62.2774 29.4083 62.2774 35.0727C62.2774 40.6595 66.4675 44.772 71.8991 44.772C77.2531 44.772 81.5208 40.6595 81.5208 35.0727ZM49.8623 35.0727C49.8623 22.8128 59.096 14.2774 68.7178 14.2774C74.8477 14.2774 79.1154 16.9156 81.5208 21.1833V14.8205H93.9359V55.3248H81.5208V49.0397C79.1154 53.2298 74.8477 55.9456 68.7178 55.9456C59.096 55.9456 49.8623 47.4102 49.8623 35.0727Z" fill="#005BC4"/>
<path d="M31.4257 34.9951C31.4257 29.5635 27.2356 25.5286 21.9592 25.5286C16.6052 25.5286 12.4151 29.5635 12.4151 34.9951C12.4151 40.5819 16.838 44.6944 21.9592 44.6944C27.0805 44.6944 31.4257 40.5819 31.4257 34.9951ZM21.9592 14.1998H44.384V25.063H39.1076C41.9786 27.0805 43.996 31.2706 43.996 34.9951C43.996 47.0998 33.8312 55.9456 21.9592 55.9456C10.0097 55.9456 0 47.0998 0 34.9951C0 22.8904 9.54411 14.1998 21.9592 14.1998ZM4.96604 57.4199C9.6993 60.6012 15.5965 62.5411 21.9592 62.5411C28.2444 62.5411 34.1415 60.6012 38.9524 57.4199L43.7633 68.1279C37.2453 71.6972 29.9514 73.7923 21.9592 73.7923C13.967 73.7923 6.59553 71.6972 0.155189 68.1279L4.96604 57.4199Z" fill="#005BC4"/>
</svg>
