<svg width="45" height="45" viewBox="0 0 45 45" fill="none" xmlns="http://www.w3.org/2000/svg">
<rect y="0.792297" width="44.1607" height="44.1607" rx="4.41607" fill="#005BC4"/>
<path d="M26.1608 19.2142C26.1608 16.7532 24.2727 14.9251 21.8951 14.9251C19.4825 14.9251 17.5944 16.7532 17.5944 19.2142C17.5944 21.7454 19.5874 23.6087 21.8951 23.6087C24.2028 23.6087 26.1608 21.7454 26.1608 19.2142ZM21.8951 9.7923H32V14.7142H29.6224C30.9161 15.6282 31.8252 17.5267 31.8252 19.2142C31.8252 24.6985 27.2448 28.7064 21.8951 28.7064C16.5105 28.7064 12 24.6985 12 19.2142C12 13.7298 16.3007 9.7923 21.8951 9.7923ZM14.2378 29.3743C16.3706 30.8157 19.028 31.6946 21.8951 31.6946C24.7273 31.6946 27.3846 30.8157 29.5524 29.3743L31.7203 34.2259C28.7832 35.8431 25.4965 36.7923 21.8951 36.7923C18.2937 36.7923 14.972 35.8431 12.0699 34.2259L14.2378 29.3743Z" fill="#E6F1FE"/>
</svg>
